<?xml version="1.0" encoding="UTF-8"?>
<svg width="41px" height="27px" viewBox="0 0 41 27" version="1.1" xmlns="http://www.w3.org/2000/svg" xmlns:xlink="http://www.w3.org/1999/xlink">
    <!-- Generator: sketchtool 54.1 (76490) - https://sketchapp.com -->
    <title>98912A31-6929-4D57-BB96-DE879D584A00</title>
    <desc>Created with sketchtool.</desc>
    <g id="UI" stroke="none" stroke-width="1" fill="none" fill-rule="evenodd">
        <g id="01.02-Odysway-Home-(1)-bis-test" transform="translate(-1179.000000, -1791.000000)" fill="#bc5948">
            <g id="TEMOIGNAGES" transform="translate(0.000000, 1611.000000)">
                <g id="Txt" transform="translate(232.000000, 81.000000)">
                    <g id="Shape-3" transform="translate(947.000000, 99.000000)">
                        <path d="M39.717,2.567 C33.551,2.567 28.225,6.233 25.778,11.505 C27.04,10.731 28.522,10.284 30.107,10.284 C34.699,10.284 38.441,14.032 38.441,18.641 C38.441,23.25 34.699,26.998 30.107,26.998 C25.514,26.998 21.779,23.25 21.779,18.641 C21.779,18.477 21.785,18.315 21.794,18.153 C21.788,18.102 21.779,18.053 21.779,18.001 C21.779,8.074 29.825,2.30926389e-14 39.717,2.30926389e-14 C40.431,2.30926389e-14 41,0.571 41,1.28 C41,1.997 40.431,2.567 39.717,2.567 L39.717,2.567 Z M17.937,2.567 C11.769,2.567 6.439,6.236 3.99,11.51 C5.254,10.733 6.739,10.284 8.327,10.284 C12.919,10.284 16.655,14.032 16.655,18.641 C16.655,23.25 12.919,26.998 8.327,26.998 C3.735,26.998 0,23.25 0,18.641 C0,18.478 0.006,18.315 0.015,18.154 C0.009,18.103 0,18.053 0,18.001 C0,8.074 8.045,2.30926389e-14 17.937,2.30926389e-14 C18.644,2.30926389e-14 19.221,0.571 19.221,1.28 C19.221,1.997 18.644,2.567 17.937,2.567 L17.937,2.567 Z" id="Shape" transform="translate(20.500000, 13.499000) scale(-1, 1) translate(-20.500000, -13.499000) "></path>
                    </g>
                </g>
            </g>
        </g>
    </g>
</svg>