<svg width="433" height="109" viewBox="0 0 433 109" fill="none" xmlns="http://www.w3.org/2000/svg">
<path d="M30.8983 69.48C40.4183 69.48 45.1783 63.48 45.1783 51.48C45.1783 39.56 40.4183 33.6 30.8983 33.6C21.3783 33.6 16.6183 39.56 16.6183 51.48C16.6183 63.48 21.3783 69.48 30.8983 69.48ZM30.8983 82.56C26.0983 82.56 21.8183 81.8 18.0583 80.28C14.2983 78.76 11.0983 76.64 8.45828 73.92C5.89828 71.2 3.93828 67.92 2.57828 64.08C1.21828 60.24 0.538281 56.04 0.538281 51.48C0.538281 46.84 1.21828 42.6 2.57828 38.76C4.01828 34.92 6.05828 31.64 8.69828 28.92C11.3383 26.2 14.4983 24.12 18.1783 22.68C21.9383 21.16 26.1783 20.4 30.8983 20.4C35.5383 20.4 39.6983 21.16 43.3783 22.68C47.0583 24.12 50.1783 26.2 52.7383 28.92C55.3783 31.56 57.3783 34.8 58.7383 38.64C60.1783 42.48 60.8983 46.76 60.8983 51.48C60.8983 56.2 60.1783 60.48 58.7383 64.32C57.3783 68.08 55.3783 71.32 52.7383 74.04C50.1783 76.76 47.0183 78.88 43.2583 80.4C39.5783 81.84 35.4583 82.56 30.8983 82.56ZM93.9198 69.84C97.6798 69.84 100.8 68.28 103.28 65.16C105.84 62.04 107.12 57.96 107.12 52.92C107.12 40.12 102.76 33.72 94.0398 33.72C85.0798 33.72 80.5998 39.8 80.5998 51.96C80.5998 57.24 81.8398 61.56 84.3198 64.92C86.7998 68.2 89.9998 69.84 93.9198 69.84ZM106.88 81L106.76 73.8C103.16 79.64 97.6798 82.56 90.3198 82.56C86.5598 82.56 83.1198 81.84 79.9998 80.4C76.8798 78.96 74.1998 76.88 71.9598 74.16C69.7198 71.44 67.9598 68.12 66.6798 64.2C65.3998 60.28 64.7598 55.84 64.7598 50.88C64.7598 46.4 65.2798 42.32 66.3198 38.64C67.4398 34.88 69.0398 31.64 71.1198 28.92C73.1998 26.2 75.7198 24.12 78.6798 22.68C81.7198 21.16 85.1598 20.4 88.9998 20.4C96.2798 20.4 102.12 23.48 106.52 29.64V0.359994H121.88V81H106.88ZM165.629 73.2C164.509 75.84 162.469 77.92 159.509 79.44C156.629 80.88 153.349 81.6 149.669 81.6C146.549 81.6 143.669 81.12 141.029 80.16C138.389 79.12 136.109 77.68 134.189 75.84C132.269 73.92 130.749 71.68 129.629 69.12C128.589 66.48 128.069 63.52 128.069 60.24V21.96H143.669V57.96C143.669 65.32 146.989 69 153.629 69C157.229 69 160.109 67.96 162.269 65.88C164.509 63.8 165.629 61.16 165.629 57.96V21.96H181.229V82.56C181.229 86.72 180.509 90.44 179.069 93.72C177.709 97 175.789 99.76 173.309 102C170.909 104.24 168.029 105.96 164.669 107.16C161.389 108.36 157.869 108.96 154.109 108.96C145.389 108.96 138.869 106.76 134.549 102.36C130.229 97.96 128.069 91.92 128.069 84.24H142.589C142.589 87.76 143.589 90.52 145.589 92.52C147.669 94.52 150.749 95.52 154.829 95.52C156.269 95.52 157.629 95.2 158.909 94.56C160.189 94 161.309 93.16 162.269 92.04C163.309 91 164.109 89.68 164.669 88.08C165.309 86.48 165.629 84.72 165.629 82.8V73.2ZM223.003 39.84C222.603 37.12 221.563 35.16 219.883 33.96C218.283 32.68 215.803 32.04 212.443 32.04C209.243 32.04 206.803 32.44 205.123 33.24C203.523 33.96 202.723 35.24 202.723 37.08C202.723 38.68 203.523 39.96 205.123 40.92C206.803 41.88 209.203 42.8 212.323 43.68C217.443 45.12 221.763 46.36 225.283 47.4C228.803 48.36 231.603 49.52 233.683 50.88C235.843 52.24 237.363 53.96 238.243 56.04C239.203 58.04 239.683 60.76 239.683 64.2C239.683 69.48 237.483 73.88 233.083 77.4C228.683 80.84 222.163 82.56 213.523 82.56C209.283 82.56 205.443 82.08 202.003 81.12C198.563 80.16 195.603 78.8 193.123 77.04C190.723 75.2 188.843 73.04 187.483 70.56C186.203 68 185.523 65.16 185.443 62.04H201.523C201.523 64.84 202.603 67 204.763 68.52C207.003 70.04 209.883 70.8 213.403 70.8C216.363 70.8 218.883 70.36 220.963 69.48C223.123 68.52 224.203 67.08 224.203 65.16C224.203 63 223.403 61.44 221.803 60.48C220.283 59.52 217.923 58.68 214.723 57.96C208.963 56.68 204.323 55.36 200.803 54C197.283 52.56 194.523 51 192.523 49.32C190.603 47.64 189.283 45.8 188.563 43.8C187.923 41.8 187.603 39.56 187.603 37.08C187.603 34.84 188.043 32.72 188.923 30.72C189.883 28.72 191.363 26.96 193.363 25.44C195.363 23.92 197.963 22.72 201.163 21.84C204.363 20.88 208.283 20.4 212.923 20.4C221.403 20.4 227.603 22.12 231.523 25.56C235.443 29 237.603 33.76 238.003 39.84H223.003ZM289.406 81L280.046 46.68L270.686 81H254.726L237.926 21.96H254.366L263.966 59.88L272.126 21.96H287.966L297.206 59.88L306.206 21.96H322.286L305.366 81H289.406ZM357.074 52.08C356.274 52.88 355.114 53.52 353.594 54C352.074 54.48 349.874 55 346.994 55.56C342.514 56.44 339.434 57.56 337.754 58.92C336.074 60.28 335.234 62.24 335.234 64.8C335.234 69.2 337.754 71.4 342.794 71.4C344.794 71.4 346.634 71.08 348.314 70.44C350.074 69.72 351.554 68.8 352.754 67.68C354.034 66.48 355.034 65.12 355.754 63.6C356.554 62 356.954 60.32 356.954 58.56L357.074 52.08ZM358.154 81C357.674 79.48 357.354 77.72 357.194 75.72C355.354 77.8 352.914 79.48 349.874 80.76C346.834 81.96 343.314 82.56 339.314 82.56C332.514 82.56 327.514 81.08 324.314 78.12C321.194 75.08 319.634 71.16 319.634 66.36C319.634 62.12 320.314 58.76 321.674 56.28C323.034 53.72 324.914 51.72 327.314 50.28C329.714 48.84 332.554 47.8 335.834 47.16C339.194 46.44 342.834 45.8 346.754 45.24C350.674 44.68 353.314 43.96 354.674 43.08C356.034 42.12 356.714 40.6 356.714 38.52C356.714 36.6 355.794 35.12 353.954 34.08C352.194 32.96 349.794 32.4 346.754 32.4C343.154 32.4 340.554 33.2 338.954 34.8C337.434 36.4 336.474 38.52 336.074 41.16H321.554C321.634 38.12 322.114 35.32 322.994 32.76C323.954 30.2 325.434 28 327.434 26.16C329.514 24.32 332.194 22.92 335.474 21.96C338.754 20.92 342.754 20.4 347.474 20.4C352.114 20.4 356.034 20.92 359.234 21.96C362.514 23 365.114 24.52 367.034 26.52C369.034 28.44 370.474 30.88 371.354 33.84C372.234 36.72 372.674 40 372.674 43.68V81H358.154ZM416.528 73.2C415.408 75.84 413.368 77.92 410.408 79.44C407.528 80.88 404.248 81.6 400.568 81.6C397.448 81.6 394.568 81.12 391.928 80.16C389.288 79.12 387.008 77.68 385.088 75.84C383.168 73.92 381.648 71.68 380.528 69.12C379.488 66.48 378.968 63.52 378.968 60.24V21.96H394.568V57.96C394.568 65.32 397.888 69 404.528 69C408.128 69 411.008 67.96 413.168 65.88C415.408 63.8 416.528 61.16 416.528 57.96V21.96H432.128V82.56C432.128 86.72 431.408 90.44 429.968 93.72C428.608 97 426.688 99.76 424.208 102C421.808 104.24 418.928 105.96 415.568 107.16C412.288 108.36 408.768 108.96 405.008 108.96C396.288 108.96 389.768 106.76 385.448 102.36C381.128 97.96 378.968 91.92 378.968 84.24H393.488C393.488 87.76 394.488 90.52 396.488 92.52C398.568 94.52 401.648 95.52 405.728 95.52C407.168 95.52 408.528 95.2 409.808 94.56C411.088 94 412.208 93.16 413.168 92.04C414.208 91 415.008 89.68 415.568 88.08C416.208 86.48 416.528 84.72 416.528 82.8V73.2Z" fill="white"/>
</svg>
