<svg width="20" height="20" viewBox="0 0 20 20" fill="none" xmlns="http://www.w3.org/2000/svg">
<g clip-path="url(#clip0_7377_19742)">
<path d="M16.7586 18.7891C16.3983 17.763 15.7287 16.874 14.842 16.2443C13.9554 15.6147 12.8953 15.2755 11.8078 15.2734H11.8031C10.7158 15.2756 9.65584 15.6148 8.76932 16.2444C7.88281 16.8741 7.21334 17.7631 6.85315 18.7891" stroke="#2B4C52" stroke-width="1.4" stroke-linecap="round" stroke-linejoin="round"/>
<path d="M9.02655 9.24219C9.78242 10.0254 10.7589 10.5597 11.8261 10.7741C12.8932 10.9885 14.0003 10.8727 15 10.4422" stroke="#2B4C52" stroke-width="1.4" stroke-linecap="round" stroke-linejoin="round"/>
<path d="M8.58044 10.8789C8.58044 11.3021 8.6638 11.7212 8.82575 12.1122C8.98771 12.5032 9.22509 12.8584 9.52434 13.1577C9.82359 13.4569 10.1789 13.6943 10.5698 13.8563C10.9608 14.0182 11.3799 14.1016 11.8031 14.1016C12.2263 14.1016 12.6454 14.0182 13.0364 13.8563C13.4273 13.6943 13.7826 13.4569 14.0819 13.1577C14.3811 12.8584 14.6185 12.5032 14.7804 12.1122C14.9424 11.7212 15.0258 11.3021 15.0258 10.8789C15.0258 10.4557 14.9424 10.0366 14.7804 9.64565C14.6185 9.25466 14.3811 8.8994 14.0819 8.60014C13.7826 8.30089 13.4273 8.06351 13.0364 7.90156C12.6454 7.73961 12.2263 7.65625 11.8031 7.65625C11.3799 7.65625 10.9608 7.73961 10.5698 7.90156C10.1789 8.06351 9.82359 8.30089 9.52434 8.60014C9.22509 8.8994 8.98771 9.25466 8.82575 9.64565C8.6638 10.0366 8.58044 10.4557 8.58044 10.8789Z" stroke="#2B4C52" stroke-width="1.4" stroke-linecap="round" stroke-linejoin="round"/>
<path d="M2.16797 12.9297C2.16797 13.5513 2.4149 14.1474 2.85444 14.587C3.29398 15.0265 3.89012 15.2734 4.51172 15.2734C5.13332 15.2734 5.72946 15.0265 6.169 14.587C6.60854 14.1474 6.85547 13.5513 6.85547 12.9297C6.85547 12.3081 6.60854 11.7119 6.169 11.2724C5.72946 10.8329 5.13332 10.5859 4.51172 10.5859C3.89012 10.5859 3.29398 10.8329 2.85444 11.2724C2.4149 11.7119 2.16797 12.3081 2.16797 12.9297Z" stroke="#2B4C52" stroke-width="1.4" stroke-linecap="round" stroke-linejoin="round"/>
<path d="M5.20625 16.5141C4.37788 16.3474 3.51719 16.4859 2.78291 16.904C2.04864 17.3221 1.49032 17.9917 1.21094 18.7891" stroke="#2B4C52" stroke-width="1.4" stroke-linecap="round" stroke-linejoin="round"/>
<path d="M11.8055 15.2734V18.7891" stroke="#2B4C52" stroke-width="1.4" stroke-linecap="round" stroke-linejoin="round"/>
<path d="M18.7891 18.7891V1.21094H8.82812L11.1719 3.55469L8.82812 5.89844H18.7891" stroke="#2B4C52" stroke-width="1.4" stroke-linecap="round" stroke-linejoin="round"/>
</g>
<defs>
<clipPath id="clip0_7377_19742">
<rect width="20" height="20" fill="white"/>
</clipPath>
</defs>
</svg>
