<svg xmlns="http://www.w3.org/2000/svg" width="14" height="14" viewBox="0 0 14 14">
    <path fill="#FFF" fill-rule="evenodd" d="M5.69 9.231a.725.725 0 1 1 0-1.45.725.725 0 0 1 0 1.45zm2.62 0a.725.725 0 1 1 0-1.45.725.725 0 0 1 0 1.45zM7 0c3.86 0 7 3.14 7 7s-3.14 7-7 7-7-3.14-7-7 3.14-7 7-7zm0 12.717a5.724 5.724 0 0 0 5.6-4.562 2.645 2.645 0 0 1-2.047-2.577c0-.274.039-.536.117-.787a6.472 6.472 0 0 1-4.535 1.846A6.487 6.487 0 0 1 1.69 4.88 5.69 5.69 0 0 0 1.283 7 5.725 5.725 0 0 0 7 12.717zm-1.826-1.651a.474.474 0 1 1 .547-.775c.307.217.773.351 1.282.351.514 0 .984-.136 1.291-.357a.474.474 0 0 1 .553.77c-.476.343-1.14.536-1.844.536-.697 0-1.354-.19-1.83-.525z"/>
</svg>
