<svg width="18" height="18" viewBox="0 0 18 18" fill="none" xmlns="http://www.w3.org/2000/svg">
<path fill-rule="evenodd" clip-rule="evenodd" d="M0.450195 9.40205C0.450195 5.98667 0.450195 4.27898 1.26405 3.04898C1.62748 2.49972 2.09786 2.02933 2.64712 1.66591C3.87712 0.852051 5.58481 0.852051 9.0002 0.852051C12.4156 0.852051 14.1233 0.852051 15.3533 1.66591C15.9025 2.02933 16.3729 2.49972 16.7363 3.04898C17.5502 4.27898 17.5502 5.98667 17.5502 9.40205C17.5502 12.8174 17.5502 14.5251 16.7363 15.7551C16.3729 16.3044 15.9025 16.7748 15.3533 17.1382C14.1233 17.9521 12.4156 17.9521 9.0002 17.9521C5.58481 17.9521 3.87712 17.9521 2.64712 17.1382C2.09786 16.7748 1.62748 16.3044 1.26405 15.7551C0.450195 14.5251 0.450195 12.8174 0.450195 9.40205ZM13.4263 9.40217C13.4263 11.8468 11.4445 13.8286 8.99983 13.8286C6.55517 13.8286 4.57339 11.8468 4.57339 9.40217C4.57339 6.95752 6.55517 4.97573 8.99983 4.97573C11.4445 4.97573 13.4263 6.95752 13.4263 9.40217ZM8.99983 12.331C10.6174 12.331 11.9287 11.0197 11.9287 9.40217C11.9287 7.78461 10.6174 6.47332 8.99983 6.47332C7.38227 6.47332 6.07097 7.78461 6.07097 9.40217C6.07097 11.0197 7.38227 12.331 8.99983 12.331ZM13.6013 5.79325C14.1757 5.79325 14.6413 5.32759 14.6413 4.75317C14.6413 4.17875 14.1757 3.71309 13.6013 3.71309C13.0268 3.71309 12.5612 4.17875 12.5612 4.75317C12.5612 5.32759 13.0268 5.79325 13.6013 5.79325Z" fill="white"/>
</svg>
