<svg width="40" height="40" viewBox="0 0 40 40" fill="none" xmlns="http://www.w3.org/2000/svg">
<path d="M2.42188 37.5781V2.42188" stroke="#2B4C52" stroke-width="2" stroke-linecap="round" stroke-linejoin="round"/>
<path d="M2.42188 32.9579L7.35 31.4423C9.39143 30.8138 11.5434 30.628 13.6624 30.8975C15.7813 31.1669 17.8183 31.8853 19.6375 33.0048C21.4134 34.0974 23.3974 34.8083 25.4631 35.0924C27.5288 35.3765 29.631 35.2274 31.6359 34.6548L36.3031 33.3219C36.6704 33.2168 36.9934 32.9949 37.2234 32.6899C37.4535 32.3849 37.578 32.0133 37.5781 31.6313V6.93289C37.5779 6.66089 37.5146 6.39266 37.3932 6.14926C37.2718 5.90586 37.0956 5.69393 36.8784 5.5301C36.6613 5.36627 36.4092 5.25502 36.1418 5.20508C35.8744 5.15513 35.5991 5.16786 35.3375 5.24226L31.6359 6.30007C29.631 6.87275 27.5288 7.02179 25.4631 6.73772C23.3974 6.45365 21.4134 5.74269 19.6375 4.65007C17.8183 3.53066 15.7813 2.81225 13.6624 2.5428C11.5434 2.27336 9.39143 2.45908 7.35 3.08757L2.42188 4.60164" stroke="#2B4C52" stroke-width="2" stroke-linecap="round" stroke-linejoin="round"/>
<path d="M20.0001 25.2737L14.0079 19.0237C13.4813 18.4976 13.1337 17.819 13.0145 17.0841C12.8953 16.3493 13.0105 15.5956 13.3438 14.93C13.595 14.4274 13.962 13.9918 14.4146 13.659C14.8672 13.3261 15.3924 13.1056 15.9469 13.0155C16.5015 12.9255 17.0695 12.9686 17.6041 13.1411C18.1387 13.3137 18.6247 13.6108 19.022 14.0081L20.0001 14.9862L20.9782 14.0081C21.3755 13.6108 21.8614 13.3137 22.3961 13.1411C22.9307 12.9686 23.4987 12.9255 24.0533 13.0155C24.6078 13.1056 25.133 13.3261 25.5856 13.659C26.0382 13.9918 26.4052 14.4274 26.6563 14.93C26.9893 15.5954 27.1043 16.3488 26.9851 17.0833C26.866 17.8178 26.5186 18.4961 25.9923 19.0222L20.0001 25.2737Z" stroke="#2B4C52" stroke-width="2" stroke-linecap="round" stroke-linejoin="round"/>
</svg>
