<svg width="24" height="24" viewBox="0 0 24 24" fill="none" xmlns="http://www.w3.org/2000/svg">
<path d="M7.5 9.75391C7.5 10.9474 7.97411 12.092 8.81802 12.9359C9.66193 13.7798 10.8065 14.2539 12 14.2539C13.1935 14.2539 14.3381 13.7798 15.182 12.9359C16.0259 12.092 16.5 10.9474 16.5 9.75391C16.5 8.56043 16.0259 7.41584 15.182 6.57193C14.3381 5.72801 13.1935 5.25391 12 5.25391C10.8065 5.25391 9.66193 5.72801 8.81802 6.57193C7.97411 7.41584 7.5 8.56043 7.5 9.75391Z" stroke="#2B4C52" stroke-width="1.5" stroke-linecap="round" stroke-linejoin="round"/>
<path d="M21 9.75391C21 17.6539 14.068 22.0849 12.371 23.0539C12.2579 23.1185 12.1298 23.1525 11.9995 23.1525C11.8692 23.1525 11.7411 23.1185 11.628 23.0539C9.931 22.0839 3 17.6519 3 9.75391C3 7.36696 3.94821 5.07777 5.63604 3.38995C7.32387 1.70212 9.61305 0.753906 12 0.753906C14.3869 0.753906 16.6761 1.70212 18.364 3.38995C20.0518 5.07777 21 7.36696 21 9.75391Z" stroke="#2B4C52" stroke-width="1.5" stroke-linecap="round" stroke-linejoin="round"/>
</svg>
