<svg width="40" height="40" viewBox="0 0 40 40" fill="none" xmlns="http://www.w3.org/2000/svg">
<path d="M9.07812 6.93281C9.07812 7.5252 9.1948 8.11178 9.4215 8.65907C9.6482 9.20637 9.98047 9.70365 10.3993 10.1225C10.8182 10.5414 11.3155 10.8737 11.8628 11.1004C12.4101 11.3271 12.9967 11.4438 13.5891 11.4438C14.1814 11.4438 14.768 11.3271 15.3153 11.1004C15.8626 10.8737 16.3599 10.5414 16.7788 10.1225C17.1977 9.70365 17.5299 9.20637 17.7566 8.65907C17.9833 8.11178 18.1 7.5252 18.1 6.93281C18.1 5.73644 17.6247 4.58906 16.7788 3.7431C15.9328 2.89713 14.7854 2.42188 13.5891 2.42188C12.3927 2.42188 11.2453 2.89713 10.3993 3.7431C9.55338 4.58906 9.07812 5.73644 9.07812 6.93281Z" stroke="#2B4C52" stroke-width="2" stroke-linecap="round" stroke-linejoin="round"/>
<path d="M10.4283 16.1266C10.155 16.7389 9.64977 17.2176 9.02367 17.4575C8.39756 17.6975 7.7018 17.679 7.08927 17.4063L5.54865 16.7188C5.24538 16.5835 4.97171 16.3899 4.74327 16.1489C4.51483 15.9079 4.33609 15.6243 4.21726 15.3143C3.97727 14.6881 3.99587 13.9922 4.26896 13.3797C4.54205 12.7672 5.04726 12.2883 5.67346 12.0483C6.29966 11.8083 6.99554 11.8269 7.60802 12.1L9.14865 12.786C9.76132 13.0593 10.2403 13.5648 10.4803 14.1913C10.7203 14.8177 10.7016 15.5139 10.4283 16.1266Z" stroke="#2B4C52" stroke-width="2" stroke-linecap="round" stroke-linejoin="round"/>
<path d="M14.0312 35.0488V26.291" stroke="#2B4C52" stroke-width="2" stroke-linecap="round" stroke-linejoin="round"/>
<path d="M19.0889 20.7158V35.0486C19.0973 35.386 19.038 35.7217 18.9147 36.0358C18.7914 36.35 18.6065 36.6363 18.3708 36.8779C18.1351 37.1195 17.8535 37.3115 17.5425 37.4426C17.2315 37.5737 16.8975 37.6412 16.56 37.6412C16.2225 37.6412 15.8884 37.5737 15.5774 37.4426C15.2664 37.3115 14.9848 37.1195 14.7491 36.8779C14.5135 36.6363 14.3285 36.35 14.2052 36.0358C14.0819 35.7217 14.0227 35.386 14.0311 35.0486" stroke="#2B4C52" stroke-width="2" stroke-linecap="round" stroke-linejoin="round"/>
<path d="M14.0313 35.0486C14.0396 35.386 13.9804 35.7217 13.8571 36.0358C13.7338 36.35 13.5489 36.6363 13.3132 36.8779C13.0775 37.1195 12.7959 37.3115 12.4849 37.4426C12.1739 37.5737 11.8398 37.6412 11.5023 37.6412C11.1648 37.6412 10.8308 37.5737 10.5198 37.4426C10.2088 37.3115 9.92716 37.1195 9.69149 36.8779C9.45583 36.6363 9.2709 36.35 9.14758 36.0358C9.02426 35.7217 8.96505 35.386 8.97344 35.0486V22.2783" stroke="#2B4C52" stroke-width="2" stroke-linecap="round" stroke-linejoin="round"/>
<path d="M4.75781 21.8877V25.6705C4.75761 26.0026 4.82286 26.3314 4.94984 26.6382C5.07681 26.945 5.26303 27.2238 5.49783 27.4586C5.73262 27.6934 6.0114 27.8796 6.31822 28.0066C6.62504 28.1336 6.95388 28.1988 7.28594 28.1986H8.97344" stroke="#2B4C52" stroke-width="2" stroke-linecap="round" stroke-linejoin="round"/>
<path d="M22.6094 6.93281C22.6094 8.12919 23.0846 9.27656 23.9306 10.1225C24.7766 10.9685 25.9239 11.4437 27.1203 11.4437C28.3167 11.4437 29.4641 10.9685 30.31 10.1225C31.156 9.27656 31.6313 8.12919 31.6313 6.93281C31.6313 5.73644 31.156 4.58906 30.31 3.7431C29.4641 2.89713 28.3167 2.42188 27.1203 2.42188C25.9239 2.42188 24.7766 2.89713 23.9306 3.7431C23.0846 4.58906 22.6094 5.73644 22.6094 6.93281Z" stroke="#2B4C52" stroke-width="2" stroke-linecap="round" stroke-linejoin="round"/>
<path d="M26.6782 35.0488V26.291" stroke="#2B4C52" stroke-width="2" stroke-linecap="round" stroke-linejoin="round"/>
<path d="M31.7358 20.7158V35.0486C31.7442 35.386 31.685 35.7217 31.5617 36.0358C31.4384 36.35 31.2534 36.6363 31.0178 36.8779C30.7821 37.1195 30.5005 37.3115 30.1895 37.4426C29.8785 37.5737 29.5444 37.6412 29.2069 37.6412C28.8694 37.6412 28.5354 37.5737 28.2244 37.4426C27.9134 37.3115 27.6317 37.1195 27.3961 36.8779C27.1604 36.6363 26.9755 36.35 26.8522 36.0358C26.7288 35.7217 26.6696 35.386 26.678 35.0486" stroke="#2B4C52" stroke-width="2" stroke-linecap="round" stroke-linejoin="round"/>
<path d="M26.678 35.0488C26.6756 35.4939 26.557 35.9307 26.334 36.3158C26.1109 36.701 25.7912 37.0213 25.4063 37.245C25.0215 37.4686 24.585 37.5879 24.1399 37.5911C23.6948 37.5942 23.2566 37.4811 22.8687 37.2629" stroke="#2B4C52" stroke-width="2" stroke-linecap="round" stroke-linejoin="round"/>
<path d="M31.7361 28.198H33.4221C33.7542 28.1983 34.0831 28.133 34.39 28.0061C34.6969 27.8791 34.9758 27.6929 35.2107 27.4581C35.4457 27.2234 35.632 26.9446 35.7592 26.6378C35.8863 26.3309 35.9518 26.0021 35.9518 25.6699V19.873C35.9518 17.6353 35.0628 15.4892 33.4805 13.9068C31.8981 12.3245 29.752 11.4355 27.5143 11.4355H25.8346C25.4394 11.4354 25.0446 11.463 24.6533 11.5184" stroke="#2B4C52" stroke-width="2" stroke-linecap="round" stroke-linejoin="round"/>
<path d="M19.0891 28.198H20.7813C21.1133 28.1983 21.4421 28.133 21.749 28.006C22.0558 27.879 22.3346 27.6928 22.5694 27.458C22.8042 27.2232 22.9904 26.9445 23.1174 26.6376C23.2443 26.3308 23.3096 26.002 23.3094 25.6699V19.873C23.3094 17.6366 22.4215 15.4917 20.8409 13.9096C19.2602 12.3275 17.1161 11.4376 14.8797 11.4355H13.1875C12.2485 11.4364 11.3163 11.5949 10.4297 11.9043C9.92591 12.067 9.48061 12.3733 9.14844 12.7855" stroke="#2B4C52" stroke-width="2" stroke-linecap="round" stroke-linejoin="round"/>
</svg>
