<svg width="22" height="17" viewBox="0 0 22 17" fill="none" xmlns="http://www.w3.org/2000/svg">
<path d="M18.5086 4.98904H4.9699L3.99461 3.06507L1.96425 2.99414C1.80407 2.99595 1.6468 3.03719 1.50633 3.11422C1.36587 3.19125 1.24655 3.30169 1.15891 3.43578C1.07126 3.56988 1.018 3.72349 1.00383 3.88306C0.989651 4.04263 1.015 4.20323 1.07763 4.35067L2.91294 8.49119C3.06054 8.8398 3.30728 9.13739 3.62251 9.34703C3.93775 9.55666 4.3076 9.6691 4.68618 9.6704H8.30359L6.0693 14.2276C5.9942 14.3767 5.95901 14.5428 5.96716 14.7095C5.97531 14.8763 6.02653 15.0381 6.11582 15.1792C6.20511 15.3203 6.32943 15.4358 6.47666 15.5146C6.62389 15.5933 6.78901 15.6325 6.95593 15.6285H8.81783C8.96024 15.6268 9.10058 15.5942 9.22916 15.533C9.35774 15.4717 9.4715 15.3833 9.56259 15.2738L14.1376 9.6438H18.5707C18.8826 9.65936 19.1945 9.61161 19.4875 9.50342C19.7805 9.39523 20.0486 9.22884 20.2756 9.01428C20.5026 8.79972 20.6838 8.54142 20.8083 8.25496C20.9328 7.96849 20.998 7.65979 21 7.34745C20.998 7.02696 20.9312 6.7102 20.8035 6.41621C20.6759 6.12222 20.4901 5.85709 20.2574 5.63677C20.0247 5.41644 19.7497 5.24548 19.4492 5.13417C19.1487 5.02285 18.8287 4.97349 18.5086 4.98904Z" stroke="#2B4C52" stroke-width="1.4" stroke-linecap="round" stroke-linejoin="round"/>
<path d="M14.2881 4.99875L11.6283 1.39021C11.5379 1.26857 11.4202 1.16988 11.2847 1.10211C11.1491 1.03434 10.9996 0.999397 10.848 1.00009H8.995C8.82778 0.99778 8.66278 1.0385 8.51584 1.11835C8.3689 1.1982 8.24497 1.31449 8.15593 1.45605C8.0669 1.59761 8.01576 1.75969 8.00744 1.92672C7.99911 2.09374 8.03387 2.2601 8.10838 2.40982L9.38511 4.98989" stroke="#2B4C52" stroke-width="1.4" stroke-linecap="round" stroke-linejoin="round"/>
</svg>
