<svg width="20" height="16" viewBox="0 0 20 16" fill="none" xmlns="http://www.w3.org/2000/svg">
<path d="M2.96875 7.41406V5.65625C2.96875 5.34545 3.09222 5.04738 3.31198 4.82761C3.53175 4.60784 3.82982 4.48438 4.14063 4.48438H8.82813C9.13893 4.48438 9.437 4.60784 9.65677 4.82761C9.87654 5.04738 10 5.34545 10 5.65625V7.41406" stroke="#2B4C52" stroke-width="1.4" stroke-linecap="round" stroke-linejoin="round"/>
<path d="M10 7.41406V5.65625C10 5.34545 10.1235 5.04738 10.3432 4.82761C10.563 4.60784 10.8611 4.48438 11.1719 4.48438H15.8594C16.1702 4.48438 16.4682 4.60784 16.688 4.82761C16.9078 5.04738 17.0313 5.34545 17.0313 5.65625V7.41406" stroke="#2B4C52" stroke-width="1.4" stroke-linecap="round" stroke-linejoin="round"/>
<path d="M2.77344 7.41406H17.2266C17.641 7.41406 18.0384 7.57868 18.3314 7.87171C18.6244 8.16473 18.7891 8.56216 18.7891 8.97656V12.6875H1.21094V8.97656C1.21094 8.56216 1.37556 8.16473 1.66858 7.87171C1.96161 7.57868 2.35904 7.41406 2.77344 7.41406Z" stroke="#2B4C52" stroke-width="1.4" stroke-linecap="round" stroke-linejoin="round"/>
<path d="M1.21094 12.6875V15.0313" stroke="#2B4C52" stroke-width="1.4" stroke-linecap="round" stroke-linejoin="round"/>
<path d="M18.7891 12.6875V15.0313" stroke="#2B4C52" stroke-width="1.4" stroke-linecap="round" stroke-linejoin="round"/>
<path d="M17.0313 7.41406V2.14063C17.0313 1.82982 16.9078 1.53175 16.688 1.31198C16.4682 1.09222 16.1702 0.96875 15.8594 0.96875H4.14063C3.82982 0.96875 3.53175 1.09222 3.31198 1.31198C3.09222 1.53175 2.96875 1.82982 2.96875 2.14063V7.41406" stroke="#2B4C52" stroke-width="1.4" stroke-linecap="round" stroke-linejoin="round"/>
</svg>
