<?xml version="1.0" encoding="UTF-8"?>
<svg width="40" height="40" viewBox="0 0 40 40" fill="none" xmlns="http://www.w3.org/2000/svg">
  <path d="M33.517 37.5781C32.7963 35.5261 31.4571 33.7479 29.6838 32.4887C27.9105 31.2294 25.7904 30.551 23.6154 30.5469H23.6061C21.4313 30.5511 19.3114 31.2296 17.5384 32.4889C15.7654 33.7481 14.4264 35.5262 13.7061 37.5781" stroke="#2B4C52" stroke-width="2" stroke-linecap="round" stroke-linejoin="round"/>
  <path d="M18.0532 18.4863C19.565 20.0527 21.518 21.1214 23.6522 21.5501C25.7865 21.9789 28.0007 21.7473 30.0001 20.8863" stroke="#2B4C52" stroke-width="2" stroke-linecap="round" stroke-linejoin="round"/>
  <path d="M17.1611 21.7578C17.1611 22.6042 17.3278 23.4423 17.6518 24.2243C17.9757 25.0063 18.4504 25.7168 19.0489 26.3153C19.6474 26.9138 20.358 27.3886 21.1399 27.7125C21.9219 28.0364 22.76 28.2031 23.6064 28.2031C24.4529 28.2031 25.291 28.0364 26.073 27.7125C26.8549 27.3886 27.5655 26.9138 28.164 26.3153C28.7625 25.7168 29.2372 25.0063 29.5611 24.2243C29.885 23.4423 30.0518 22.6042 30.0518 21.7578C30.0518 20.9114 29.885 20.0733 29.5611 19.2913C29.2372 18.5093 28.7625 17.7988 28.164 17.2003C27.5655 16.6018 26.8549 16.127 26.073 15.8031C25.291 15.4792 24.4529 15.3125 23.6064 15.3125C22.76 15.3125 21.9219 15.4792 21.1399 15.8031C20.358 16.127 19.6474 16.6018 19.0489 17.2003C18.4504 17.7988 17.9757 18.5093 17.6518 19.2913C17.3278 20.0733 17.1611 20.9114 17.1611 21.7578Z" stroke="#2B4C52" stroke-width="2" stroke-linecap="round" stroke-linejoin="round"/>
  <path d="M4.33594 25.8594C4.33594 27.1026 4.8298 28.2949 5.70887 29.1739C6.58795 30.053 7.78024 30.5469 9.02344 30.5469C10.2666 30.5469 11.4589 30.053 12.338 29.1739C13.2171 28.2949 13.7109 27.1026 13.7109 25.8594C13.7109 24.6162 13.2171 23.4239 12.338 22.5448C11.4589 21.6657 10.2666 21.1719 9.02344 21.1719C7.78024 21.1719 6.58795 21.6657 5.70887 22.5448C4.8298 23.4239 4.33594 24.6162 4.33594 25.8594Z" stroke="#2B4C52" stroke-width="2" stroke-linecap="round" stroke-linejoin="round"/>
  <path d="M10.4125 33.0282C8.75577 32.6949 7.03437 32.9719 5.56582 33.8081C4.09728 34.6443 2.98064 35.9833 2.42188 37.5782" stroke="#2B4C52" stroke-width="2" stroke-linecap="round" stroke-linejoin="round"/>
  <path d="M23.6108 30.5469V37.5781" stroke="#2B4C52" stroke-width="2" stroke-linecap="round" stroke-linejoin="round"/>
  <path d="M37.5781 37.5781V2.42188H17.6562L22.3438 7.10938L17.6562 11.7969H37.5781" stroke="#2B4C52" stroke-width="2" stroke-linecap="round" stroke-linejoin="round"/>
</svg>
