<svg width="22" height="22" viewBox="0 0 22 22" fill="none" xmlns="http://www.w3.org/2000/svg">
<path d="M1.83331 17.4167V8.25C1.83331 7.76377 2.02647 7.29745 2.37028 6.95364C2.7141 6.60982 3.18042 6.41667 3.66665 6.41667H4.12498C4.4096 6.41667 4.6903 6.3504 4.94487 6.22312C5.19944 6.09583 5.42088 5.91103 5.59165 5.68333L7.62665 2.97C7.67788 2.90169 7.74431 2.84625 7.82068 2.80807C7.89705 2.76988 7.98126 2.75 8.06665 2.75H13.9333C14.0187 2.75 14.1029 2.76988 14.1793 2.80807C14.2557 2.84625 14.3221 2.90169 14.3733 2.97L16.4083 5.68333C16.5791 5.91103 16.8005 6.09583 17.0551 6.22312C17.3097 6.3504 17.5904 6.41667 17.875 6.41667H18.3333C18.8195 6.41667 19.2859 6.60982 19.6297 6.95364C19.9735 7.29745 20.1666 7.76377 20.1666 8.25V17.4167C20.1666 17.9029 19.9735 18.3692 19.6297 18.713C19.2859 19.0568 18.8195 19.25 18.3333 19.25H3.66665C3.18042 19.25 2.7141 19.0568 2.37028 18.713C2.02647 18.3692 1.83331 17.9029 1.83331 17.4167Z" stroke="#2B4C52" stroke-width="1.4" stroke-linecap="round" stroke-linejoin="round"/>
<path d="M11 15.5833C11.9724 15.5833 12.9051 15.197 13.5927 14.5094C14.2803 13.8218 14.6666 12.8891 14.6666 11.9167C14.6666 10.9442 14.2803 10.0116 13.5927 9.32394C12.9051 8.63631 11.9724 8.25 11 8.25C10.0275 8.25 9.09489 8.63631 8.40725 9.32394C7.71962 10.0116 7.33331 10.9442 7.33331 11.9167C7.33331 12.8891 7.71962 13.8218 8.40725 14.5094C9.09489 15.197 10.0275 15.5833 11 15.5833Z" stroke="#2B4C52" stroke-width="1.4" stroke-linecap="round" stroke-linejoin="round"/>
</svg>
