<svg width="40" height="40" viewBox="0 0 40 40" fill="none" xmlns="http://www.w3.org/2000/svg">
<path d="M2.42188 20C2.42187 22.3084 2.87655 24.5942 3.75993 26.7269C4.64331 28.8595 5.93811 30.7973 7.57039 32.4296C9.20267 34.0619 11.1405 35.3567 13.2731 36.2401C15.4058 37.1235 17.6916 37.5781 20 37.5781C22.3084 37.5781 24.5942 37.1235 26.7269 36.2401C28.8595 35.3567 30.7973 34.0619 32.4296 32.4296C34.0619 30.7973 35.3567 28.8595 36.2401 26.7269C37.1235 24.5942 37.5781 22.3084 37.5781 20C37.5781 17.6916 37.1235 15.4058 36.2401 13.2731C35.3567 11.1405 34.0619 9.20267 32.4296 7.57039C30.7973 5.93811 28.8595 4.64331 26.7269 3.75993C24.5942 2.87655 22.3084 2.42188 20 2.42188C17.6916 2.42188 15.4058 2.87655 13.2731 3.75993C11.1405 4.64331 9.20267 5.93811 7.57039 7.57039C5.93811 9.20267 4.64331 11.1405 3.75993 13.2731C2.87655 15.4058 2.42187 17.6916 2.42188 20Z" stroke="#2B4C52" stroke-width="2" stroke-linecap="round" stroke-linejoin="round"/>
<path d="M9.0625 33.75L10.625 25.8594H12.3125C12.6689 25.8606 13.0207 25.7794 13.3405 25.6222C13.6604 25.465 13.9395 25.236 14.1562 24.9531C14.3795 24.6767 14.5341 24.3514 14.6074 24.0038C14.6807 23.6562 14.6707 23.2961 14.5781 22.9531L13.4062 18.2656C13.2834 17.7575 12.9932 17.3054 12.5822 16.9823C12.1712 16.6592 11.6634 16.4838 11.1406 16.4844H2.8125" stroke="#2B4C52" stroke-width="2" stroke-linecap="round" stroke-linejoin="round"/>
<path d="M34.0626 9.45313H27.6876C27.1648 9.45253 26.6571 9.62792 26.2461 9.95104C25.8351 10.2742 25.5448 10.7262 25.422 11.2344L24.2501 15.9219C24.1597 16.2661 24.1522 16.6268 24.2282 16.9745C24.3043 17.3222 24.4617 17.6469 24.6876 17.9219C24.9044 18.2048 25.1835 18.4338 25.5034 18.591C25.8232 18.7482 26.175 18.8294 26.5314 18.8281H29.0001L30.2189 26.25C30.3103 26.7911 30.5887 27.283 31.0056 27.6399C31.4225 27.9968 31.9514 28.1962 32.5001 28.2031H35.6251" stroke="#2B4C52" stroke-width="2" stroke-linecap="round" stroke-linejoin="round"/>
</svg>
