<svg width="18" height="21" viewBox="0 0 18 21" fill="none" xmlns="http://www.w3.org/2000/svg">
<path d="M17.6893 5.45873C16.5585 5.45873 15.5129 5.0831 14.6765 4.45188C13.7161 3.72773 13.0229 2.6628 12.7789 1.43909C12.717 1.13704 12.686 0.823369 12.6821 0.501953H9.44861V9.33508L9.44474 14.1718C9.44474 15.4652 8.60054 16.5611 7.43492 16.9484C7.09414 17.0607 6.73013 17.1149 6.35063 17.0917C5.8627 17.0646 5.40962 16.9174 5.01075 16.6812C4.16655 16.1778 3.59729 15.2639 3.5818 14.2144C3.55857 12.5802 4.87909 11.2442 6.51327 11.2442C6.83469 11.2442 7.14449 11.2984 7.43492 11.3914V8.97882V8.11525C7.129 8.06878 6.8192 8.04555 6.50166 8.04555C4.71257 8.04555 3.03966 8.78906 1.84306 10.1289C0.940772 11.1397 0.398624 12.4331 0.313429 13.7884C0.205 15.5659 0.855577 17.2582 2.11801 18.5051C2.30388 18.6871 2.49751 18.8575 2.70275 19.0163C3.78705 19.8489 5.10756 20.302 6.50166 20.302C6.81533 20.302 7.129 20.2787 7.43492 20.2322C8.73608 20.0386 9.93655 19.4423 10.8853 18.5051C12.0509 17.355 12.6938 15.8254 12.7015 14.1989L12.686 6.97287C13.2436 7.40272 13.8478 7.75511 14.5022 8.03006C15.5168 8.4599 16.5933 8.67289 17.697 8.67289V6.32617V5.45486C17.7009 5.45873 17.6893 5.45873 17.6893 5.45873Z" fill="white"/>
</svg>
