<svg width="19" height="19" viewBox="0 0 19 19" fill="none" xmlns="http://www.w3.org/2000/svg">
<path d="M13.0039 17.1062C10.9837 17.1062 9.04624 16.3037 7.61774 14.8752C6.18924 13.4467 5.38672 11.5092 5.38672 9.48901C5.38672 7.46881 6.18924 5.53135 7.61774 4.10285C9.04624 2.67435 10.9837 1.87183 13.0039 1.87183C13.0497 1.87026 13.0937 1.85346 13.129 1.82409C13.1642 1.79471 13.1886 1.75444 13.1984 1.70963C13.2081 1.66482 13.2027 1.61803 13.1829 1.57666C13.1631 1.53529 13.1301 1.5017 13.0891 1.4812C11.9583 0.96674 10.7305 0.700352 9.48828 0.699951C7.15728 0.699951 4.92174 1.62594 3.27348 3.27421C1.62521 4.92248 0.699219 7.15801 0.699219 9.48901C0.699219 11.82 1.62521 14.0556 3.27348 15.7038C4.92174 17.3521 7.15728 18.2781 9.48828 18.2781C10.7305 18.2777 11.9583 18.0113 13.0891 17.4968C13.1301 17.4763 13.1631 17.4427 13.1829 17.4014C13.2027 17.36 13.2081 17.3132 13.1984 17.2684C13.1886 17.2236 13.1642 17.1833 13.129 17.1539C13.0937 17.1246 13.0497 17.1078 13.0039 17.1062Z" stroke="#2B4C52" stroke-width="1.4" stroke-linecap="round" stroke-linejoin="round"/>
<path d="M13.5898 5.38745V7.7312" stroke="#2B4C52" stroke-width="1.4" stroke-linecap="round" stroke-linejoin="round"/>
<path d="M12.418 6.55933H14.7617" stroke="#2B4C52" stroke-width="1.4" stroke-linecap="round" stroke-linejoin="round"/>
<path d="M17.1055 10.075V12.4187" stroke="#2B4C52" stroke-width="1.4" stroke-linecap="round" stroke-linejoin="round"/>
<path d="M15.9336 11.2468H18.2773" stroke="#2B4C52" stroke-width="1.4" stroke-linecap="round" stroke-linejoin="round"/>
<path d="M11.2461 11.2468V13.5906" stroke="#2B4C52" stroke-width="1.4" stroke-linecap="round" stroke-linejoin="round"/>
<path d="M10.0742 12.4187H12.418" stroke="#2B4C52" stroke-width="1.4" stroke-linecap="round" stroke-linejoin="round"/>
</svg>
