<svg width="17" height="18" viewBox="0 0 17 18" fill="none" xmlns="http://www.w3.org/2000/svg">
<path d="M1 8.92248C1 9.90209 1.19295 10.8721 1.56783 11.7771C1.94271 12.6822 2.49218 13.5045 3.18486 14.1972C3.87755 14.8899 4.69989 15.4394 5.60493 15.8142C6.50997 16.1891 7.47998 16.3821 8.45959 16.3821C9.4392 16.3821 10.4092 16.1891 11.3143 15.8142C12.2193 15.4394 13.0416 14.8899 13.7343 14.1972C14.427 13.5045 14.9765 12.6822 15.3514 11.7771C15.7262 10.8721 15.9192 9.90209 15.9192 8.92248C15.9192 7.94288 15.7262 6.97286 15.3514 6.06782C14.9765 5.16278 14.427 4.34044 13.7343 3.64775C13.0416 2.95507 12.2193 2.4056 11.3143 2.03072C10.4092 1.65584 9.4392 1.46289 8.45959 1.46289C7.47998 1.46289 6.50997 1.65584 5.60493 2.03072C4.69989 2.4056 3.87755 2.95507 3.18486 3.64775C2.49218 4.34044 1.94271 5.16278 1.56783 6.06782C1.19295 6.97286 1 7.94288 1 8.92248Z" fill="#2B4C52" stroke="#2B4C52" stroke-width="1.4" stroke-linecap="round" stroke-linejoin="round"/>
<path d="M4.48047 9.7345L6.105 12.04C6.16662 12.1321 6.24934 12.2081 6.34626 12.2617C6.44318 12.3153 6.55151 12.345 6.66223 12.3483C6.77295 12.3516 6.88286 12.3285 6.98281 12.2807C7.08276 12.233 7.16986 12.162 7.23687 12.0738L12.4374 5.49414" fill="#2B4C52"/>
<path d="M4.48047 9.7345L6.105 12.04C6.16662 12.1321 6.24934 12.2081 6.34626 12.2617C6.44318 12.3153 6.55151 12.345 6.66223 12.3483C6.77295 12.3516 6.88286 12.3285 6.98281 12.2807C7.08276 12.233 7.16986 12.162 7.23687 12.0738L12.4374 5.49414" stroke="white" stroke-width="1.4" stroke-linecap="round" stroke-linejoin="round"/>
</svg>
