<svg width="26" height="26" viewBox="0 0 26 26" fill="none" xmlns="http://www.w3.org/2000/svg">
<g clip-path="url(#clip0_7377_21029)">
<path d="M10.4906 10.4902L14.9653 14.9649" stroke="#DB6644" stroke-width="1.4" stroke-linecap="round" stroke-linejoin="round"/>
<path d="M10.4906 14.9648L14.9653 10.4902" stroke="#DB6644" stroke-width="1.4" stroke-linecap="round" stroke-linejoin="round"/>
<path d="M7.13459 18.3209C7.86911 19.0554 8.74112 19.638 9.70082 20.0356C10.6605 20.4331 11.6891 20.6377 12.7279 20.6377C13.7667 20.6377 14.7953 20.4331 15.755 20.0356C16.7147 19.638 17.5867 19.0554 18.3212 18.3209C19.0558 17.5863 19.6384 16.7143 20.0359 15.7546C20.4335 14.7949 20.6381 13.7663 20.6381 12.7275C20.6381 11.6888 20.4335 10.6602 20.0359 9.70045C19.6384 8.74075 19.0558 7.86874 18.3212 7.13421C17.5867 6.39969 16.7147 5.81703 15.755 5.41951C14.7953 5.02199 13.7667 4.81738 12.7279 4.81738C11.6891 4.81738 10.6605 5.02198 9.70082 5.41951C8.74112 5.81703 7.86911 6.39969 7.13459 7.13421C6.40006 7.86874 5.8174 8.74075 5.41988 9.70045C5.02236 10.6602 4.81775 11.6888 4.81775 12.7275C4.81775 13.7663 5.02236 14.7949 5.41988 15.7546C5.8174 16.7143 6.40006 17.5863 7.13459 18.3209Z" stroke="#DB6644" stroke-width="1.4" stroke-linecap="round" stroke-linejoin="round"/>
</g>
<defs>
<clipPath id="clip0_7377_21029">
<rect width="18" height="18" fill="white" transform="translate(0 12.7275) rotate(-45)"/>
</clipPath>
</defs>
</svg>
