<svg width="18" height="19" viewBox="0 0 18 19" fill="none" xmlns="http://www.w3.org/2000/svg">
<path d="M4.73267 10.3337L6.47489 12.8062C6.54097 12.9049 6.62968 12.9864 6.73362 13.044C6.83757 13.1015 6.95374 13.1333 7.07249 13.1369C7.19123 13.1404 7.3091 13.1156 7.41629 13.0643C7.52348 13.0131 7.61689 12.9371 7.68876 12.8425L13.266 5.78613" stroke="#2B4C52" stroke-width="1.4" stroke-linecap="round" stroke-linejoin="round"/>
<path d="M1 9.46289C1 10.5135 1.20693 11.5538 1.60896 12.5244C2.011 13.495 2.60028 14.3769 3.34315 15.1197C4.08601 15.8626 4.96793 16.4519 5.93853 16.8539C6.90914 17.256 7.94943 17.4629 9 17.4629C10.0506 17.4629 11.0909 17.256 12.0615 16.8539C13.0321 16.4519 13.914 15.8626 14.6569 15.1197C15.3997 14.3769 15.989 13.495 16.391 12.5244C16.7931 11.5538 17 10.5135 17 9.46289C17 8.41232 16.7931 7.37203 16.391 6.40142C15.989 5.43082 15.3997 4.54891 14.6569 3.80604C13.914 3.06317 13.0321 2.47389 12.0615 2.07185C11.0909 1.66982 10.0506 1.46289 9 1.46289C7.94943 1.46289 6.90914 1.66982 5.93853 2.07185C4.96793 2.47389 4.08601 3.06317 3.34315 3.80604C2.60028 4.54891 2.011 5.43082 1.60896 6.40142C1.20693 7.37203 1 8.41232 1 9.46289Z" stroke="#2B4C52" stroke-width="1.4" stroke-linecap="round" stroke-linejoin="round"/>
</svg>
